# xmcd CD database file
#
# Track frame offsets:
#	150
#	18655
#	34605
#	52750
#
# Disc length: 911 seconds
#
# Revision: 0
# Processed by: cddbd v1.5.1PL2 Copyright (c) Steve Scherf et al.
# Submitted via: CDex 1.51
#
DISCID=25038d04
DTITLE=MAHO堂 - おジャ魔女どれみドッカ〜ン！ おジャ魔女音頭でハッピッピ!!／MAHOでチャチャチャ
DYEAR=1900
DGENRE=アニメ
TTITLE0=おジャ魔女音頭でハッピッピ!!
TTITLE1=MAHOでチャチャチャ
TTITLE2=おジャ魔女音頭でハッピッピ!!（オリジナル・カラオケ)
TTITLE3=MAHOでチャチャチャ(オリジナル・カラオケ)
EXTD=
EXTT0=
EXTT1=
EXTT2=
EXTT3=
PLAYORDER=
